<?xml version="1.0" standalone="no"?><!-- Generator: Gravit.io --><svg xmlns="http://www.w3.org/2000/svg" xmlns:xlink="http://www.w3.org/1999/xlink" style="isolation:isolate" viewBox="65 24.267 349.5 473.467" width="349.5" height="473.467"><g id="Group"><defs><filter id="yJ3OqrLnc6Dbl9DFn7HCqQR4P50H0kkY" x="-200%" y="-200%" width="400%" height="400%"><feOffset xmlns="http://www.w3.org/2000/svg" in="SourceAlpha" result="offOut" dx="-5" dy="5"/><feGaussianBlur xmlns="http://www.w3.org/2000/svg" in="offOut" result="blurOut" stdDeviation="10"/><feComponentTransfer xmlns="http://www.w3.org/2000/svg" in="blurOut" result="opacOut"><feFuncA xmlns="http://www.w3.org/2000/svg" type="table" tableValues="0 0.5"/></feComponentTransfer><feBlend xmlns="http://www.w3.org/2000/svg" in="SourceGraphic" in2="opacOut" mode="normal"/></filter></defs><g filter="url(#yJ3OqrLnc6Dbl9DFn7HCqQR4P50H0kkY)"><path d=" M 282.617 67.637 C 300.226 73.331 315.815 83.046 327.734 95.925 C 341.258 107.062 351.982 120.934 358.835 136.568 C 365.605 140.538 370.975 148.054 372.804 157.359 L 378.598 186.823 C 380.61 197.05 377.026 207.056 370.012 213.529 L 381.5 356.949 L 381.5 382.871 L 381.5 405.841 C 381.5 414.979 373.076 422.396 362.702 422.396 C 352.326 422.396 343.904 414.979 343.904 405.841 L 343.904 388.091 C 343.904 385.209 341.847 382.871 339.316 382.871 C 336.785 382.871 334.729 385.209 334.729 388.091 L 334.729 438.179 L 334.729 438.565 L 334.725 438.565 C 334.492 447.524 326.16 454.733 315.931 454.733 C 305.703 454.733 297.37 447.524 297.138 438.565 L 297.132 438.565 L 297.132 438.179 L 297.132 388.091 C 297.132 385.209 294.794 382.871 291.913 382.871 L 291.483 382.871 C 288.603 382.871 286.263 385.209 286.263 388.091 L 286.263 417.005 C 286.263 426.143 277.839 433.56 267.465 433.56 C 257.09 433.56 248.667 426.143 248.667 417.005 L 248.667 388.091 C 248.667 385.209 246.44 382.871 243.695 382.871 C 240.951 382.871 238.724 385.209 238.724 388.091 L 238.724 389.286 L 238.724 391.239 L 238.594 391.239 C 237.497 399.457 229.551 405.841 219.926 405.841 C 210.301 405.841 202.355 399.457 201.256 391.239 L 201.128 391.239 L 201.128 389.286 L 201.128 388.091 C 201.128 385.209 198.864 382.871 196.077 382.871 C 193.29 382.871 191.026 385.209 191.026 388.091 L 191.026 421.626 C 191.026 430.762 182.604 438.179 172.228 438.179 C 161.853 438.179 153.429 430.762 153.429 421.626 L 153.429 382.871 Q 153.303 382.066 153.429 356.949 Q 155.814 315.659 148.579 273.208 L 144.973 258.747 C 130.945 255.877 119.231 244.617 116.235 229.383 L 108.72 191.175 C 105.7 175.815 112.413 160.837 124.523 152.954 C 133.236 101.743 175.274 61.257 228.415 57.542 C 247.98 56.174 266.747 59.951 283.431 67.759 C 283.161 67.716 282.889 67.673 282.617 67.637 Z " fill="rgb(0,0,0)" vector-effect="non-scaling-stroke" stroke-width="12" stroke="rgb(244,244,244)" stroke-linejoin="miter" stroke-linecap="square" stroke-miterlimit="3"/></g><g id="deadbeat_icon"><path d=" M 354.614 158.268 C 354.614 97.888 179.561 67.41 246.323 67.41 C 313.084 67.41 367.285 116.431 367.285 176.81 C 367.285 237.189 313.084 286.21 246.323 286.21 C 179.561 286.21 354.614 218.647 354.614 158.268 Z " fill="rgb(88,86,214)"/><path d=" M 344.115 133.855 L 344.115 133.855 C 356.904 131.339 369.759 141.871 372.804 157.359 L 378.598 186.823 C 381.645 202.311 371.858 217.295 356.757 220.266 L 356.757 220.266 C 341.656 223.234 326.924 213.071 323.878 197.585 L 320.08 178.266 C 337.492 174.841 348.261 154.941 344.115 133.855 Z " fill="rgb(116,116,116)"/><path d=" M 332.185 101.08 C 306.873 69.437 260.795 54.123 214.369 65.697 C 153.3 80.924 114.606 136.946 128.013 190.722 L 148.579 273.208 Q 155.814 315.659 153.429 356.949 Q 153.303 382.066 153.429 382.871 L 153.429 421.626 C 153.429 430.762 161.853 438.179 172.228 438.179 C 182.604 438.179 191.026 430.762 191.026 421.626 L 191.026 421.626 L 191.026 388.091 C 191.026 385.209 193.29 382.871 196.077 382.871 C 198.864 382.871 201.128 385.209 201.128 388.091 L 201.128 389.287 L 201.128 391.239 L 201.256 391.239 C 202.355 399.457 210.301 405.841 219.926 405.841 C 229.551 405.841 237.497 399.457 238.594 391.239 L 238.724 391.239 L 238.724 389.287 L 238.724 388.091 C 238.724 385.209 240.951 382.871 243.695 382.871 C 246.44 382.871 248.667 385.209 248.667 388.091 L 248.667 417.005 C 248.667 426.143 257.09 433.56 267.465 433.56 C 277.839 433.56 286.263 426.143 286.263 417.005 L 286.263 417.005 L 286.263 388.091 C 286.263 385.209 288.603 382.871 291.483 382.871 L 291.913 382.871 C 294.794 382.871 297.132 385.209 297.132 388.091 L 297.132 438.179 L 297.132 438.179 L 297.132 438.565 L 297.138 438.565 C 297.37 447.524 305.703 454.733 315.931 454.733 C 326.16 454.733 334.492 447.524 334.725 438.565 L 334.729 438.565 L 334.729 438.179 L 334.729 388.091 C 334.729 385.209 336.785 382.871 339.316 382.871 C 341.847 382.871 343.904 385.209 343.904 388.091 L 343.904 405.841 C 343.904 414.979 352.325 422.396 362.702 422.396 C 373.076 422.396 381.5 414.979 381.5 405.841 L 381.5 405.841 L 381.5 382.871 L 381.5 356.949 L 369.447 206.478 C 367.143 186.176 365.704 158.351 345.342 117.475 C 341.156 111.011 336.757 105.598 332.185 101.08 Z  M 206.275 176.632 C 206.275 161.379 218.658 148.997 233.911 148.997 C 249.163 148.997 261.548 161.379 261.548 176.632 C 261.548 191.885 249.163 204.269 233.911 204.269 C 218.658 204.269 206.275 191.885 206.275 176.632 Z  M 306.404 156.236 C 306.404 147.723 313.316 140.81 321.829 140.81 C 330.344 140.81 337.254 147.723 337.254 156.236 C 337.254 164.75 330.344 171.663 321.829 171.663 C 313.316 171.663 306.404 164.75 306.404 156.236 Z " fill-rule="evenodd" fill="rgb(255,255,255)"/><path d=" M 137.044 147.812 L 137.044 147.812 C 156.624 143.96 175.728 157.139 179.676 177.222 L 187.191 215.428 C 191.141 235.511 178.449 254.942 158.868 258.793 L 158.868 258.793 C 139.287 262.644 120.185 249.466 116.235 229.383 L 108.72 191.175 C 104.771 171.092 117.463 151.661 137.044 147.812 Z " fill="rgb(116,116,116)"/><path d=" M 283.432 67.759 C 266.747 59.951 247.98 56.174 228.415 57.542 C 165.844 61.916 118.664 117.271 123.128 181.077 C 125.112 206.569 134.585 228.031 146.708 226.826 C 158.831 225.621 155.443 208.046 152.599 190.168 C 148.137 126.362 195.315 71.009 257.886 66.633 C 266.597 66.023 275.149 66.435 283.432 67.759 Z " fill="rgb(88,86,214)"/></g></g></svg>