<?xml version="1.0" standalone="no"?><!-- Generator: Gravit.io --><svg xmlns="http://www.w3.org/2000/svg" xmlns:xlink="http://www.w3.org/1999/xlink" style="isolation:isolate" viewBox="21 58.821 460 248.357" width="460" height="248.357"><g id="Group"><g id="ghosty"><path d=" M 154 147.292 C 154 114.729 59.593 98.292 95.598 98.292 C 131.603 98.292 160.834 124.729 160.834 157.292 C 160.834 189.855 131.603 216.292 95.598 216.292 C 59.593 216.292 154 179.855 154 147.292 Z " fill="rgb(88,86,214)"/><path d=" M 148.338 134.126 L 148.338 134.126 C 155.235 132.77 162.168 138.45 163.81 146.802 L 166.935 162.693 C 168.578 171.045 163.3 179.127 155.156 180.728 L 155.156 180.728 C 147.012 182.33 139.067 176.849 137.424 168.496 L 135.376 158.077 C 144.766 156.231 150.574 145.499 148.338 134.126 Z " fill="rgb(116,116,116)"/><path d=" M 141.904 116.45 C 128.253 99.385 103.403 91.126 78.365 97.369 C 45.43 105.58 24.562 135.793 31.793 164.795 L 42.884 209.28 Q 46.786 232.174 45.5 254.443 Q 45.432 267.988 45.5 268.422 L 45.5 289.323 C 45.5 294.25 50.043 298.251 55.638 298.251 C 61.234 298.251 65.776 294.25 65.776 289.323 L 65.776 289.323 L 65.776 271.237 C 65.776 269.684 66.997 268.422 68.5 268.422 C 70.003 268.422 71.224 269.684 71.224 271.237 L 71.224 271.883 L 71.224 272.935 L 71.293 272.935 C 71.886 277.367 76.171 280.811 81.362 280.811 C 86.553 280.811 90.838 277.367 91.43 272.935 L 91.5 272.935 L 91.5 271.883 L 91.5 271.237 C 91.5 269.684 92.701 268.422 94.181 268.422 C 95.661 268.422 96.862 269.684 96.862 271.237 L 96.862 286.832 C 96.862 291.759 101.405 295.759 107 295.759 C 112.595 295.759 117.138 291.759 117.138 286.832 L 117.138 286.832 L 117.138 271.237 C 117.138 269.684 118.4 268.422 119.953 268.422 L 120.185 268.422 C 121.739 268.422 123 269.684 123 271.237 L 123 298.251 L 123 298.251 L 123 298.458 L 123.003 298.458 C 123.128 303.29 127.622 307.179 133.138 307.179 C 138.655 307.179 143.148 303.29 143.274 298.458 L 143.276 298.458 L 143.276 298.251 L 143.276 271.237 C 143.276 269.684 144.385 268.422 145.75 268.422 C 147.115 268.422 148.224 269.684 148.224 271.237 L 148.224 280.811 C 148.224 285.738 152.766 289.738 158.362 289.738 C 163.957 289.738 168.5 285.738 168.5 280.811 L 168.5 280.811 L 168.5 268.422 L 168.5 254.443 L 162 173.292 C 160.757 162.343 159.981 147.338 149 125.292 C 146.742 121.806 144.37 118.887 141.904 116.45 Z  M 74 157.197 C 74 148.971 80.678 142.292 88.904 142.292 C 97.13 142.292 103.809 148.971 103.809 157.197 C 103.809 165.423 97.13 172.101 88.904 172.101 C 80.678 172.101 74 165.423 74 157.197 Z  M 128 146.197 C 128 141.605 131.728 137.878 136.319 137.878 C 140.911 137.878 144.638 141.605 144.638 146.197 C 144.638 150.788 140.911 154.516 136.319 154.516 C 131.728 154.516 128 150.788 128 146.197 Z " fill-rule="evenodd" fill="rgb(255,255,255)"/><path d=" M 36.663 141.653 L 36.663 141.653 C 47.223 139.576 57.526 146.683 59.655 157.514 L 63.708 178.12 C 65.838 188.951 58.993 199.43 48.433 201.506 L 48.433 201.506 C 37.873 203.583 27.571 196.476 25.441 185.645 L 21.388 165.04 C 19.258 154.209 26.103 143.73 36.663 141.653 Z " fill="rgb(116,116,116)"/><path d=" M 115.611 98.481 C 106.613 94.269 96.492 92.232 85.94 92.97 C 52.195 95.33 26.751 125.183 29.158 159.593 C 30.228 173.341 35.337 184.917 41.875 184.266 C 48.413 183.616 46.586 174.138 45.052 164.496 C 42.646 130.086 68.089 100.233 101.834 97.873 C 106.532 97.545 111.144 97.766 115.611 98.481 Z " fill="rgb(88,86,214)"/></g><g id="Group"><path d=" M 342.24 197.131 L 342.24 154.299 L 354.34 154.299 L 354.34 154.299 Q 362.865 154.299 366.674 156.848 L 366.674 156.848 L 366.674 156.848 Q 370.482 159.396 370.482 164.904 L 370.482 164.904 L 370.482 164.904 Q 370.482 168.713 368.358 171.188 L 368.358 171.188 L 368.358 171.188 Q 366.234 173.664 362.162 174.396 L 362.162 174.396 L 362.162 174.689 L 362.162 174.689 Q 371.918 176.359 371.918 184.943 L 371.918 184.943 L 371.918 184.943 Q 371.918 190.686 368.036 193.908 L 368.036 193.908 L 368.036 193.908 Q 364.154 197.131 357.182 197.131 L 357.182 197.131 L 342.24 197.131 Z  M 347.221 158.605 L 347.221 172.639 L 355.424 172.639 L 355.424 172.639 Q 360.697 172.639 363.012 170.983 L 363.012 170.983 L 363.012 170.983 Q 365.326 169.328 365.326 165.402 L 365.326 165.402 L 365.326 165.402 Q 365.326 161.799 362.748 160.202 L 362.748 160.202 L 362.748 160.202 Q 360.17 158.605 354.545 158.605 L 354.545 158.605 L 347.221 158.605 Z  M 355.746 176.857 L 347.221 176.857 L 347.221 192.883 L 356.156 192.883 L 356.156 192.883 Q 361.342 192.883 363.964 190.876 L 363.964 190.876 L 363.964 190.876 Q 366.586 188.869 366.586 184.592 L 366.586 184.592 L 366.586 184.592 Q 366.586 180.607 363.905 178.732 L 363.905 178.732 L 363.905 178.732 Q 361.225 176.857 355.746 176.857 L 355.746 176.857 Z  M 393.949 197.717 L 393.949 197.717 L 393.949 197.717 Q 386.83 197.717 382.714 193.381 L 382.714 193.381 L 382.714 193.381 Q 378.598 189.045 378.598 181.34 L 378.598 181.34 L 378.598 181.34 Q 378.598 173.576 382.421 169.006 L 382.421 169.006 L 382.421 169.006 Q 386.244 164.436 392.689 164.436 L 392.689 164.436 L 392.689 164.436 Q 398.725 164.436 402.24 168.405 L 402.24 168.405 L 402.24 168.405 Q 405.756 172.375 405.756 178.879 L 405.756 178.879 L 405.756 181.955 L 383.637 181.955 L 383.637 181.955 Q 383.783 187.609 386.493 190.539 L 386.493 190.539 L 386.493 190.539 Q 389.203 193.469 394.125 193.469 L 394.125 193.469 L 394.125 193.469 Q 399.311 193.469 404.379 191.301 L 404.379 191.301 L 404.379 195.637 L 404.379 195.637 Q 401.801 196.75 399.501 197.233 L 399.501 197.233 L 399.501 197.233 Q 397.201 197.717 393.949 197.717 Z  M 392.631 168.508 L 392.631 168.508 L 392.631 168.508 Q 388.764 168.508 386.464 171.027 L 386.464 171.027 L 386.464 171.027 Q 384.164 173.547 383.754 178 L 383.754 178 L 400.541 178 L 400.541 178 Q 400.541 173.4 398.49 170.954 L 398.49 170.954 L 398.49 170.954 Q 396.439 168.508 392.631 168.508 Z  M 437.396 197.131 L 433.793 197.131 L 432.826 192.561 L 432.592 192.561 L 432.592 192.561 Q 430.189 195.578 427.802 196.647 L 427.802 196.647 L 427.802 196.647 Q 425.414 197.717 421.84 197.717 L 421.84 197.717 L 421.84 197.717 Q 417.064 197.717 414.354 195.256 L 414.354 195.256 L 414.354 195.256 Q 411.645 192.795 411.645 188.254 L 411.645 188.254 L 411.645 188.254 Q 411.645 178.527 427.201 178.059 L 427.201 178.059 L 432.65 177.883 L 432.65 175.891 L 432.65 175.891 Q 432.65 172.111 431.024 170.31 L 431.024 170.31 L 431.024 170.31 Q 429.398 168.508 425.824 168.508 L 425.824 168.508 L 425.824 168.508 Q 421.811 168.508 416.742 170.969 L 416.742 170.969 L 415.248 167.248 L 415.248 167.248 Q 417.621 165.959 420.448 165.227 L 420.448 165.227 L 420.448 165.227 Q 423.275 164.494 426.117 164.494 L 426.117 164.494 L 426.117 164.494 Q 431.859 164.494 434.628 167.043 L 434.628 167.043 L 434.628 167.043 Q 437.396 169.592 437.396 175.217 L 437.396 175.217 L 437.396 197.131 Z  M 422.807 193.703 L 422.807 193.703 L 422.807 193.703 Q 427.348 193.703 429.94 191.213 L 429.94 191.213 L 429.94 191.213 Q 432.533 188.723 432.533 184.24 L 432.533 184.24 L 432.533 181.34 L 427.67 181.545 L 427.67 181.545 Q 421.869 181.75 419.306 183.347 L 419.306 183.347 L 419.306 183.347 Q 416.742 184.943 416.742 188.313 L 416.742 188.313 L 416.742 188.313 Q 416.742 190.949 418.339 192.326 L 418.339 192.326 L 418.339 192.326 Q 419.936 193.703 422.807 193.703 Z  M 457.787 193.703 L 457.787 193.703 L 457.787 193.703 Q 459.076 193.703 460.277 193.513 L 460.277 193.513 L 460.277 193.513 Q 461.479 193.322 462.182 193.117 L 462.182 193.117 L 462.182 196.838 L 462.182 196.838 Q 461.391 197.219 459.853 197.468 L 459.853 197.468 L 459.853 197.468 Q 458.314 197.717 457.084 197.717 L 457.084 197.717 L 457.084 197.717 Q 447.768 197.717 447.768 187.902 L 447.768 187.902 L 447.768 168.801 L 443.168 168.801 L 443.168 166.457 L 447.768 164.436 L 449.818 157.58 L 452.631 157.58 L 452.631 165.021 L 461.947 165.021 L 461.947 168.801 L 452.631 168.801 L 452.631 187.697 L 452.631 187.697 Q 452.631 190.598 454.008 192.15 L 454.008 192.15 L 454.008 192.15 Q 455.385 193.703 457.787 193.703 Z  M 232.143 175.305 L 232.143 175.305 L 232.143 175.305 Q 232.143 186.086 226.488 191.608 L 226.488 191.608 L 226.488 191.608 Q 220.834 197.131 209.877 197.131 L 209.877 197.131 L 199.623 197.131 L 199.623 154.299 L 211.195 154.299 L 211.195 154.299 Q 221.449 154.299 226.796 159.66 L 226.796 159.66 L 226.796 159.66 Q 232.143 165.021 232.143 175.305 Z  M 228.891 175.422 L 228.891 175.422 L 228.891 175.422 Q 228.891 166.223 224.218 161.579 L 224.218 161.579 L 224.218 161.579 Q 219.545 156.936 210.492 156.936 L 210.492 156.936 L 202.611 156.936 L 202.611 194.494 L 209.701 194.494 L 209.701 194.494 Q 228.891 194.494 228.891 175.422 Z  M 254.115 197.717 L 254.115 197.717 L 254.115 197.717 Q 247.172 197.717 243.29 193.439 L 243.29 193.439 L 243.29 193.439 Q 239.408 189.162 239.408 181.457 L 239.408 181.457 L 239.408 181.457 Q 239.408 173.84 243.158 169.255 L 243.158 169.255 L 243.158 169.255 Q 246.908 164.67 253.266 164.67 L 253.266 164.67 L 253.266 164.67 Q 258.891 164.67 262.143 168.596 L 262.143 168.596 L 262.143 168.596 Q 265.395 172.521 265.395 179.26 L 265.395 179.26 L 265.395 181.604 L 242.455 181.604 L 242.455 181.604 Q 242.514 188.166 245.517 191.623 L 245.517 191.623 L 245.517 191.623 Q 248.52 195.08 254.115 195.08 L 254.115 195.08 L 254.115 195.08 Q 256.84 195.08 258.905 194.699 L 258.905 194.699 L 258.905 194.699 Q 260.971 194.318 264.135 193.059 L 264.135 193.059 L 264.135 195.695 L 264.135 195.695 Q 261.439 196.867 259.154 197.292 L 259.154 197.292 L 259.154 197.292 Q 256.869 197.717 254.115 197.717 Z  M 253.266 167.248 L 253.266 167.248 L 253.266 167.248 Q 248.666 167.248 245.883 170.28 L 245.883 170.28 L 245.883 170.28 Q 243.1 173.313 242.631 179.025 L 242.631 179.025 L 262.318 179.025 L 262.318 179.025 Q 262.318 173.488 259.916 170.368 L 259.916 170.368 L 259.916 170.368 Q 257.514 167.248 253.266 167.248 Z  M 295.658 197.131 L 293.52 197.131 L 292.787 192.092 L 292.553 192.092 L 292.553 192.092 Q 290.15 195.168 287.616 196.442 L 287.616 196.442 L 287.616 196.442 Q 285.082 197.717 281.625 197.717 L 281.625 197.717 L 281.625 197.717 Q 276.938 197.717 274.33 195.314 L 274.33 195.314 L 274.33 195.314 Q 271.723 192.912 271.723 188.664 L 271.723 188.664 L 271.723 188.664 Q 271.723 184.006 275.604 181.428 L 275.604 181.428 L 275.604 181.428 Q 279.486 178.85 286.84 178.703 L 286.84 178.703 L 292.904 178.527 L 292.904 176.418 L 292.904 176.418 Q 292.904 171.877 291.059 169.563 L 291.059 169.563 L 291.059 169.563 Q 289.213 167.248 285.111 167.248 L 285.111 167.248 L 285.111 167.248 Q 280.688 167.248 275.941 169.709 L 275.941 169.709 L 274.857 167.189 L 274.857 167.189 Q 280.102 164.729 285.229 164.729 L 285.229 164.729 L 285.229 164.729 Q 290.473 164.729 293.065 167.453 L 293.065 167.453 L 293.065 167.453 Q 295.658 170.178 295.658 175.949 L 295.658 175.949 L 295.658 197.131 Z  M 281.801 195.08 L 281.801 195.08 L 281.801 195.08 Q 286.898 195.08 289.843 192.165 L 289.843 192.165 L 289.843 192.165 Q 292.787 189.25 292.787 184.064 L 292.787 184.064 L 292.787 180.93 L 287.221 181.164 L 287.221 181.164 Q 280.512 181.486 277.655 183.259 L 277.655 183.259 L 277.655 183.259 Q 274.799 185.031 274.799 188.781 L 274.799 188.781 L 274.799 188.781 Q 274.799 191.77 276.63 193.425 L 276.63 193.425 L 276.63 193.425 Q 278.461 195.08 281.801 195.08 Z  M 317.631 164.67 L 317.631 164.67 L 317.631 164.67 Q 321.088 164.67 323.607 165.93 L 323.607 165.93 L 323.607 165.93 Q 326.127 167.189 328.119 170.236 L 328.119 170.236 L 328.295 170.236 L 328.295 170.236 Q 328.119 166.545 328.119 163 L 328.119 163 L 328.119 151.545 L 330.99 151.545 L 330.99 197.131 L 329.086 197.131 L 328.354 192.268 L 328.119 192.268 L 328.119 192.268 Q 324.486 197.717 317.689 197.717 L 317.689 197.717 L 317.689 197.717 Q 311.098 197.717 307.611 193.615 L 307.611 193.615 L 307.611 193.615 Q 304.125 189.514 304.125 181.662 L 304.125 181.662 L 304.125 181.662 Q 304.125 173.4 307.582 169.035 L 307.582 169.035 L 307.582 169.035 Q 311.039 164.67 317.631 164.67 Z  M 317.631 167.307 L 317.631 167.307 L 317.631 167.307 Q 312.416 167.307 309.794 170.969 L 309.794 170.969 L 309.794 170.969 Q 307.172 174.631 307.172 181.604 L 307.172 181.604 L 307.172 181.604 Q 307.172 195.139 317.689 195.139 L 317.689 195.139 L 317.689 195.139 Q 323.08 195.139 325.6 192.004 L 325.6 192.004 L 325.6 192.004 Q 328.119 188.869 328.119 181.662 L 328.119 181.662 L 328.119 181.164 L 328.119 181.164 Q 328.119 173.781 325.644 170.544 L 325.644 170.544 L 325.644 170.544 Q 323.168 167.307 317.631 167.307 Z " fill-rule="evenodd" fill="rgb(234,234,234)"/><path d=" M 333.98 225.234 L 333.98 225.234 L 333.98 225.234 Q 334.41 225.234 334.811 225.171 L 334.811 225.171 L 334.811 225.171 Q 335.211 225.107 335.445 225.039 L 335.445 225.039 L 335.445 226.279 L 335.445 226.279 Q 335.182 226.406 334.669 226.489 L 334.669 226.489 L 334.669 226.489 Q 334.156 226.572 333.746 226.572 L 333.746 226.572 L 333.746 226.572 Q 330.641 226.572 330.641 223.301 L 330.641 223.301 L 330.641 216.934 L 329.107 216.934 L 329.107 216.152 L 330.641 215.479 L 331.324 213.193 L 332.262 213.193 L 332.262 215.674 L 335.367 215.674 L 335.367 216.934 L 332.262 216.934 L 332.262 223.232 L 332.262 223.232 Q 332.262 224.199 332.721 224.717 L 332.721 224.717 L 332.721 224.717 Q 333.18 225.234 333.98 225.234 Z  M 345.367 226.377 L 344.166 226.377 L 343.844 224.854 L 343.766 224.854 L 343.766 224.854 Q 342.965 225.859 342.169 226.216 L 342.169 226.216 L 342.169 226.216 Q 341.373 226.572 340.182 226.572 L 340.182 226.572 L 340.182 226.572 Q 338.59 226.572 337.687 225.752 L 337.687 225.752 L 337.687 225.752 Q 336.783 224.932 336.783 223.418 L 336.783 223.418 L 336.783 223.418 Q 336.783 220.176 341.969 220.02 L 341.969 220.02 L 343.785 219.961 L 343.785 219.297 L 343.785 219.297 Q 343.785 218.037 343.243 217.437 L 343.243 217.437 L 343.243 217.437 Q 342.701 216.836 341.51 216.836 L 341.51 216.836 L 341.51 216.836 Q 340.172 216.836 338.482 217.656 L 338.482 217.656 L 337.984 216.416 L 337.984 216.416 Q 338.775 215.986 339.718 215.742 L 339.718 215.742 L 339.718 215.742 Q 340.66 215.498 341.607 215.498 L 341.607 215.498 L 341.607 215.498 Q 343.521 215.498 344.444 216.348 L 344.444 216.348 L 344.444 216.348 Q 345.367 217.197 345.367 219.072 L 345.367 219.072 L 345.367 226.377 Z  M 340.504 225.234 L 340.504 225.234 L 340.504 225.234 Q 342.018 225.234 342.882 224.404 L 342.882 224.404 L 342.882 224.404 Q 343.746 223.574 343.746 222.08 L 343.746 222.08 L 343.746 221.113 L 342.125 221.182 L 342.125 221.182 Q 340.191 221.25 339.337 221.782 L 339.337 221.782 L 339.337 221.782 Q 338.482 222.314 338.482 223.438 L 338.482 223.438 L 338.482 223.438 Q 338.482 224.316 339.015 224.775 L 339.015 224.775 L 339.015 224.775 Q 339.547 225.234 340.504 225.234 Z  M 350.328 211.182 L 350.328 226.377 L 348.707 226.377 L 348.707 211.182 L 350.328 211.182 Z  M 355.289 220.898 L 355.367 220.898 L 355.367 220.898 Q 355.787 220.303 356.646 219.336 L 356.646 219.336 L 360.104 215.674 L 362.027 215.674 L 357.691 220.234 L 362.33 226.377 L 360.367 226.377 L 356.588 221.318 L 355.367 222.373 L 355.367 226.377 L 353.766 226.377 L 353.766 211.182 L 355.367 211.182 L 355.367 219.238 L 355.367 219.238 Q 355.367 219.775 355.289 220.898 L 355.289 220.898 Z  M 366.227 212.1 L 365.729 222.441 L 364.703 222.441 L 364.205 212.1 L 366.227 212.1 Z  M 364.029 225.342 L 364.029 225.342 L 364.029 225.342 Q 364.029 224.014 365.201 224.014 L 365.201 224.014 L 365.201 224.014 Q 365.768 224.014 366.075 224.355 L 366.075 224.355 L 366.075 224.355 Q 366.383 224.697 366.383 225.342 L 366.383 225.342 L 366.383 225.342 Q 366.383 225.967 366.07 226.313 L 366.07 226.313 L 366.07 226.313 Q 365.758 226.66 365.201 226.66 L 365.201 226.66 L 365.201 226.66 Q 364.693 226.66 364.361 226.353 L 364.361 226.353 L 364.361 226.353 Q 364.029 226.045 364.029 225.342 Z  M 285.592 226.377 L 283.971 226.377 L 283.971 219.414 L 283.971 219.414 Q 283.971 218.135 283.424 217.495 L 283.424 217.495 L 283.424 217.495 Q 282.877 216.855 281.725 216.855 L 281.725 216.855 L 281.725 216.855 Q 280.211 216.855 279.488 217.725 L 279.488 217.725 L 279.488 217.725 Q 278.766 218.594 278.766 220.4 L 278.766 220.4 L 278.766 226.377 L 277.145 226.377 L 277.145 219.414 L 277.145 219.414 Q 277.145 218.135 276.598 217.495 L 276.598 217.495 L 276.598 217.495 Q 276.051 216.855 274.889 216.855 L 274.889 216.855 L 274.889 216.855 Q 273.365 216.855 272.657 217.769 L 272.657 217.769 L 272.657 217.769 Q 271.949 218.682 271.949 220.762 L 271.949 220.762 L 271.949 226.377 L 270.328 226.377 L 270.328 215.674 L 271.646 215.674 L 271.91 217.139 L 271.988 217.139 L 271.988 217.139 Q 272.447 216.357 273.282 215.918 L 273.282 215.918 L 273.282 215.918 Q 274.117 215.479 275.152 215.479 L 275.152 215.479 L 275.152 215.479 Q 277.662 215.479 278.434 217.295 L 278.434 217.295 L 278.512 217.295 L 278.512 217.295 Q 278.99 216.455 279.898 215.967 L 279.898 215.967 L 279.898 215.967 Q 280.807 215.479 281.969 215.479 L 281.969 215.479 L 281.969 215.479 Q 283.785 215.479 284.688 216.411 L 284.688 216.411 L 284.688 216.411 Q 285.592 217.344 285.592 219.395 L 285.592 219.395 L 285.592 226.377 Z  M 288.814 215.674 L 290.455 215.674 L 290.455 222.617 L 290.455 222.617 Q 290.455 223.926 291.051 224.57 L 291.051 224.57 L 291.051 224.57 Q 291.646 225.215 292.916 225.215 L 292.916 225.215 L 292.916 225.215 Q 294.596 225.215 295.372 224.297 L 295.372 224.297 L 295.372 224.297 Q 296.148 223.379 296.148 221.299 L 296.148 221.299 L 296.148 215.674 L 297.77 215.674 L 297.77 226.377 L 296.432 226.377 L 296.197 224.941 L 296.109 224.941 L 296.109 224.941 Q 295.611 225.732 294.728 226.152 L 294.728 226.152 L 294.728 226.152 Q 293.844 226.572 292.711 226.572 L 292.711 226.572 L 292.711 226.572 Q 290.758 226.572 289.786 225.645 L 289.786 225.645 L 289.786 225.645 Q 288.814 224.717 288.814 222.676 L 288.814 222.676 L 288.814 215.674 Z  M 308.111 223.457 L 308.111 223.457 L 308.111 223.457 Q 308.111 224.951 306.998 225.762 L 306.998 225.762 L 306.998 225.762 Q 305.885 226.572 303.873 226.572 L 303.873 226.572 L 303.873 226.572 Q 301.744 226.572 300.553 225.898 L 300.553 225.898 L 300.553 224.395 L 300.553 224.395 Q 301.324 224.785 302.208 225.01 L 302.208 225.01 L 302.208 225.01 Q 303.092 225.234 303.912 225.234 L 303.912 225.234 L 303.912 225.234 Q 305.182 225.234 305.865 224.829 L 305.865 224.829 L 305.865 224.829 Q 306.549 224.424 306.549 223.594 L 306.549 223.594 L 306.549 223.594 Q 306.549 222.969 306.007 222.524 L 306.007 222.524 L 306.007 222.524 Q 305.465 222.08 303.893 221.475 L 303.893 221.475 L 303.893 221.475 Q 302.398 220.918 301.769 220.503 L 301.769 220.503 L 301.769 220.503 Q 301.139 220.088 300.831 219.561 L 300.831 219.561 L 300.831 219.561 Q 300.523 219.033 300.523 218.301 L 300.523 218.301 L 300.523 218.301 Q 300.523 216.992 301.588 216.235 L 301.588 216.235 L 301.588 216.235 Q 302.652 215.479 304.508 215.479 L 304.508 215.479 L 304.508 215.479 Q 306.236 215.479 307.887 216.182 L 307.887 216.182 L 307.311 217.5 L 307.311 217.5 Q 305.699 216.836 304.391 216.836 L 304.391 216.836 L 304.391 216.836 Q 303.238 216.836 302.652 217.197 L 302.652 217.197 L 302.652 217.197 Q 302.066 217.559 302.066 218.193 L 302.066 218.193 L 302.066 218.193 Q 302.066 218.623 302.286 218.926 L 302.286 218.926 L 302.286 218.926 Q 302.506 219.229 302.994 219.502 L 302.994 219.502 L 302.994 219.502 Q 303.482 219.775 304.869 220.293 L 304.869 220.293 L 304.869 220.293 Q 306.773 220.986 307.442 221.689 L 307.442 221.689 L 307.442 221.689 Q 308.111 222.393 308.111 223.457 Z  M 312.369 215.674 L 312.369 226.377 L 310.748 226.377 L 310.748 215.674 L 312.369 215.674 Z  M 310.611 212.773 L 310.611 212.773 L 310.611 212.773 Q 310.611 212.217 310.885 211.958 L 310.885 211.958 L 310.885 211.958 Q 311.158 211.699 311.568 211.699 L 311.568 211.699 L 311.568 211.699 Q 311.959 211.699 312.242 211.963 L 312.242 211.963 L 312.242 211.963 Q 312.525 212.227 312.525 212.773 L 312.525 212.773 L 312.525 212.773 Q 312.525 213.32 312.242 213.589 L 312.242 213.589 L 312.242 213.589 Q 311.959 213.857 311.568 213.857 L 311.568 213.857 L 311.568 213.857 Q 311.158 213.857 310.885 213.589 L 310.885 213.589 L 310.885 213.589 Q 310.611 213.32 310.611 212.773 Z  M 320.084 226.572 L 320.084 226.572 L 320.084 226.572 Q 317.76 226.572 316.485 225.142 L 316.485 225.142 L 316.485 225.142 Q 315.211 223.711 315.211 221.094 L 315.211 221.094 L 315.211 221.094 Q 315.211 218.408 316.505 216.943 L 316.505 216.943 L 316.505 216.943 Q 317.799 215.479 320.191 215.479 L 320.191 215.479 L 320.191 215.479 Q 320.963 215.479 321.734 215.645 L 321.734 215.645 L 321.734 215.645 Q 322.506 215.811 322.945 216.035 L 322.945 216.035 L 322.447 217.412 L 322.447 217.412 Q 321.91 217.197 321.275 217.056 L 321.275 217.056 L 321.275 217.056 Q 320.641 216.914 320.152 216.914 L 320.152 216.914 L 320.152 216.914 Q 316.891 216.914 316.891 221.074 L 316.891 221.074 L 316.891 221.074 Q 316.891 223.047 317.687 224.102 L 317.687 224.102 L 317.687 224.102 Q 318.482 225.156 320.045 225.156 L 320.045 225.156 L 320.045 225.156 Q 321.383 225.156 322.789 224.58 L 322.789 224.58 L 322.789 226.016 L 322.789 226.016 Q 321.715 226.572 320.084 226.572 Z  M 238.033 225.234 L 238.033 225.234 L 238.033 225.234 Q 238.463 225.234 238.863 225.171 L 238.863 225.171 L 238.863 225.171 Q 239.264 225.107 239.498 225.039 L 239.498 225.039 L 239.498 226.279 L 239.498 226.279 Q 239.234 226.406 238.722 226.489 L 238.722 226.489 L 238.722 226.489 Q 238.209 226.572 237.799 226.572 L 237.799 226.572 L 237.799 226.572 Q 234.693 226.572 234.693 223.301 L 234.693 223.301 L 234.693 216.934 L 233.16 216.934 L 233.16 216.152 L 234.693 215.479 L 235.377 213.193 L 236.314 213.193 L 236.314 215.674 L 239.42 215.674 L 239.42 216.934 L 236.314 216.934 L 236.314 223.232 L 236.314 223.232 Q 236.314 224.199 236.773 224.717 L 236.773 224.717 L 236.773 224.717 Q 237.232 225.234 238.033 225.234 Z  M 250.582 226.377 L 248.961 226.377 L 248.961 219.453 L 248.961 219.453 Q 248.961 218.145 248.365 217.5 L 248.365 217.5 L 248.365 217.5 Q 247.77 216.855 246.5 216.855 L 246.5 216.855 L 246.5 216.855 Q 244.811 216.855 244.034 217.773 L 244.034 217.773 L 244.034 217.773 Q 243.258 218.691 243.258 220.781 L 243.258 220.781 L 243.258 226.377 L 241.637 226.377 L 241.637 211.182 L 243.258 211.182 L 243.258 215.781 L 243.258 215.781 Q 243.258 216.611 243.18 217.158 L 243.18 217.158 L 243.277 217.158 L 243.277 217.158 Q 243.756 216.387 244.64 215.942 L 244.64 215.942 L 244.64 215.942 Q 245.523 215.498 246.656 215.498 L 246.656 215.498 L 246.656 215.498 Q 248.619 215.498 249.601 216.431 L 249.601 216.431 L 249.601 216.431 Q 250.582 217.363 250.582 219.395 L 250.582 219.395 L 250.582 226.377 Z  M 258.434 226.572 L 258.434 226.572 L 258.434 226.572 Q 256.061 226.572 254.688 225.127 L 254.688 225.127 L 254.688 225.127 Q 253.316 223.682 253.316 221.113 L 253.316 221.113 L 253.316 221.113 Q 253.316 218.525 254.591 217.002 L 254.591 217.002 L 254.591 217.002 Q 255.865 215.479 258.014 215.479 L 258.014 215.479 L 258.014 215.479 Q 260.025 215.479 261.197 216.802 L 261.197 216.802 L 261.197 216.802 Q 262.369 218.125 262.369 220.293 L 262.369 220.293 L 262.369 221.318 L 254.996 221.318 L 254.996 221.318 Q 255.045 223.203 255.948 224.18 L 255.948 224.18 L 255.948 224.18 Q 256.852 225.156 258.492 225.156 L 258.492 225.156 L 258.492 225.156 Q 260.221 225.156 261.91 224.434 L 261.91 224.434 L 261.91 225.879 L 261.91 225.879 Q 261.051 226.25 260.284 226.411 L 260.284 226.411 L 260.284 226.411 Q 259.518 226.572 258.434 226.572 Z  M 257.994 216.836 L 257.994 216.836 L 257.994 216.836 Q 256.705 216.836 255.938 217.676 L 255.938 217.676 L 255.938 217.676 Q 255.172 218.516 255.035 220 L 255.035 220 L 260.631 220 L 260.631 220 Q 260.631 218.467 259.947 217.651 L 259.947 217.651 L 259.947 217.651 Q 259.264 216.836 257.994 216.836 Z  M 208.922 226.377 L 200.963 226.377 L 200.963 212.1 L 202.623 212.1 L 202.623 224.873 L 208.922 224.873 L 208.922 226.377 Z  M 215.621 226.572 L 215.621 226.572 L 215.621 226.572 Q 213.248 226.572 211.876 225.127 L 211.876 225.127 L 211.876 225.127 Q 210.504 223.682 210.504 221.113 L 210.504 221.113 L 210.504 221.113 Q 210.504 218.525 211.778 217.002 L 211.778 217.002 L 211.778 217.002 Q 213.053 215.479 215.201 215.479 L 215.201 215.479 L 215.201 215.479 Q 217.213 215.479 218.385 216.802 L 218.385 216.802 L 218.385 216.802 Q 219.557 218.125 219.557 220.293 L 219.557 220.293 L 219.557 221.318 L 212.184 221.318 L 212.184 221.318 Q 212.232 223.203 213.136 224.18 L 213.136 224.18 L 213.136 224.18 Q 214.039 225.156 215.68 225.156 L 215.68 225.156 L 215.68 225.156 Q 217.408 225.156 219.098 224.434 L 219.098 224.434 L 219.098 225.879 L 219.098 225.879 Q 218.238 226.25 217.472 226.411 L 217.472 226.411 L 217.472 226.411 Q 216.705 226.572 215.621 226.572 Z  M 215.182 216.836 L 215.182 216.836 L 215.182 216.836 Q 213.893 216.836 213.126 217.676 L 213.126 217.676 L 213.126 217.676 Q 212.359 218.516 212.223 220 L 212.223 220 L 217.818 220 L 217.818 220 Q 217.818 218.467 217.135 217.651 L 217.135 217.651 L 217.135 217.651 Q 216.451 216.836 215.182 216.836 Z  M 225.777 225.234 L 225.777 225.234 L 225.777 225.234 Q 226.207 225.234 226.607 225.171 L 226.607 225.171 L 226.607 225.171 Q 227.008 225.107 227.242 225.039 L 227.242 225.039 L 227.242 226.279 L 227.242 226.279 Q 226.979 226.406 226.466 226.489 L 226.466 226.489 L 226.466 226.489 Q 225.953 226.572 225.543 226.572 L 225.543 226.572 L 225.543 226.572 Q 222.438 226.572 222.438 223.301 L 222.438 223.301 L 222.438 216.934 L 220.904 216.934 L 220.904 216.152 L 222.438 215.479 L 223.121 213.193 L 224.059 213.193 L 224.059 215.674 L 227.164 215.674 L 227.164 216.934 L 224.059 216.934 L 224.059 223.232 L 224.059 223.232 Q 224.059 224.199 224.518 224.717 L 224.518 224.717 L 224.518 224.717 Q 224.977 225.234 225.777 225.234 Z " fill-rule="evenodd" fill="rgb(88,86,214)"/><path d=" M 464.967 156.434 L 464.967 163.969 L 463.959 163.969 L 463.959 156.434 L 461.416 156.434 L 461.416 155.52 L 467.533 155.52 L 467.533 156.434 L 464.967 156.434 Z  M 472.865 163.969 L 471.998 163.969 L 469.408 156.832 L 469.338 156.832 L 469.385 159.188 L 469.385 163.969 L 468.424 163.969 L 468.424 155.52 L 469.889 155.52 L 472.479 162.621 L 475.104 155.52 L 476.568 155.52 L 476.568 163.969 L 475.561 163.969 L 475.561 159.305 L 475.607 156.879 L 475.525 156.879 L 472.865 163.969 Z " fill-rule="evenodd" fill="rgb(185,185,185)"/></g></g></svg>