<?xml version="1.0" standalone="no"?><!-- Generator: Gravit.io --><svg xmlns="http://www.w3.org/2000/svg" xmlns:xlink="http://www.w3.org/1999/xlink" style="isolation:isolate" viewBox="170 130.529 147.5 248.357" width="147.5" height="248.357"><g id="ghosty"><path d=" M 303 219 C 303 186.437 208.593 170 244.598 170 C 280.603 170 309.834 196.437 309.834 229 C 309.834 261.563 280.603 288 244.598 288 C 208.593 288 303 251.563 303 219 Z " fill="rgb(88,86,214)"/><path d=" M 297.338 205.834 L 297.338 205.834 C 304.235 204.477 311.168 210.157 312.81 218.51 L 315.935 234.4 C 317.578 242.753 312.3 250.834 304.156 252.436 L 304.156 252.436 C 296.012 254.037 288.067 248.556 286.424 240.204 L 284.376 229.785 C 293.766 227.938 299.574 217.206 297.338 205.834 Z " fill="rgb(116,116,116)"/><path d=" M 290.904 188.158 C 277.253 171.093 252.403 162.834 227.365 169.076 C 194.43 177.288 173.562 207.501 180.793 236.503 L 191.884 280.988 Q 195.786 303.882 194.5 326.15 Q 194.432 339.696 194.5 340.13 L 194.5 361.031 C 194.5 365.958 199.043 369.958 204.638 369.958 C 210.234 369.958 214.776 365.958 214.776 361.031 L 214.776 361.031 L 214.776 342.945 C 214.776 341.391 215.997 340.13 217.5 340.13 C 219.003 340.13 220.224 341.391 220.224 342.945 L 220.224 343.59 L 220.224 344.643 L 220.293 344.643 C 220.886 349.075 225.171 352.518 230.362 352.518 C 235.553 352.518 239.838 349.075 240.43 344.643 L 240.5 344.643 L 240.5 343.59 L 240.5 342.945 C 240.5 341.391 241.701 340.13 243.181 340.13 C 244.661 340.13 245.862 341.391 245.862 342.945 L 245.862 358.539 C 245.862 363.467 250.405 367.467 256 367.467 C 261.595 367.467 266.138 363.467 266.138 358.539 L 266.138 358.539 L 266.138 342.945 C 266.138 341.391 267.4 340.13 268.953 340.13 L 269.185 340.13 C 270.739 340.13 272 341.391 272 342.945 L 272 369.958 L 272 369.958 L 272 370.166 L 272.003 370.166 C 272.128 374.998 276.622 378.886 282.138 378.886 C 287.655 378.886 292.148 374.998 292.274 370.166 L 292.276 370.166 L 292.276 369.958 L 292.276 342.945 C 292.276 341.391 293.385 340.13 294.75 340.13 C 296.115 340.13 297.224 341.391 297.224 342.945 L 297.224 352.518 C 297.224 357.446 301.766 361.446 307.362 361.446 C 312.957 361.446 317.5 357.446 317.5 352.518 L 317.5 352.518 L 317.5 340.13 L 317.5 326.15 L 311 245 C 309.757 234.051 308.981 219.045 298 197 C 295.742 193.514 293.37 190.595 290.904 188.158 Z  M 223 228.904 C 223 220.678 229.678 214 237.904 214 C 246.13 214 252.809 220.678 252.809 228.904 C 252.809 237.13 246.13 243.809 237.904 243.809 C 229.678 243.809 223 237.13 223 228.904 Z  M 277 217.904 C 277 213.313 280.728 209.585 285.319 209.585 C 289.911 209.585 293.638 213.313 293.638 217.904 C 293.638 222.496 289.911 226.224 285.319 226.224 C 280.728 226.224 277 222.496 277 217.904 Z " fill-rule="evenodd" fill="rgb(255,255,255)"/><path d=" M 185.663 213.361 L 185.663 213.361 C 196.223 211.284 206.526 218.391 208.655 229.222 L 212.708 249.827 C 214.838 260.658 207.993 271.137 197.433 273.214 L 197.433 273.214 C 186.873 275.291 176.571 268.184 174.441 257.353 L 170.388 236.747 C 168.258 225.916 175.103 215.437 185.663 213.361 Z " fill="rgb(116,116,116)"/><path d=" M 264.611 170.188 C 255.613 165.977 245.492 163.94 234.94 164.678 C 201.195 167.037 175.751 196.89 178.158 231.301 C 179.228 245.049 184.337 256.624 190.875 255.974 C 197.413 255.324 195.586 245.846 194.052 236.204 C 191.646 201.793 217.089 171.941 250.834 169.581 C 255.532 169.252 260.144 169.474 264.611 170.188 Z " fill="rgb(88,86,214)"/></g></svg>