<?xml version="1.0" standalone="no"?><!-- Generator: Gravit.io --><svg xmlns="http://www.w3.org/2000/svg" xmlns:xlink="http://www.w3.org/1999/xlink" style="isolation:isolate" viewBox="85 21.09 342 469.82" width="342" height="469.82"><g id="Group"><path d=" M 295.044 61.782 C 313.2 67.654 329.273 77.671 341.563 90.95 C 355.508 102.434 366.564 116.736 373.63 132.856 C 380.611 136.95 386.147 144.699 388.033 154.294 L 394.008 184.673 C 396.082 195.217 392.387 205.535 385.155 212.209 L 397 360.086 L 397 386.814 L 397 410.498 C 397 419.92 388.314 427.567 377.618 427.567 C 366.919 427.567 358.235 419.92 358.235 410.498 L 358.235 392.196 C 358.235 389.225 356.115 386.814 353.505 386.814 C 350.896 386.814 348.775 389.225 348.775 392.196 L 348.771 444.238 C 348.531 453.477 339.941 460.91 329.393 460.91 C 318.847 460.91 310.255 453.079 310.016 443.841 L 310.01 444.238 L 310.01 443.841 L 310.01 392.196 C 310.01 389.225 307.6 386.814 304.629 386.814 L 304.185 386.814 C 301.216 386.814 298.803 389.225 298.803 392.196 L 298.803 422.009 C 298.803 431.431 290.118 439.078 279.421 439.078 C 268.724 439.078 260.038 431.431 260.038 422.009 L 260.038 392.196 C 260.038 389.225 257.742 386.814 254.913 386.814 C 252.083 386.814 249.787 389.225 249.787 392.196 L 249.787 393.429 L 249.787 395.442 L 249.653 395.442 C 248.521 403.915 240.329 410.498 230.404 410.498 C 220.48 410.498 212.288 403.915 211.154 395.442 L 211.022 395.442 L 211.022 393.429 L 211.022 392.196 C 211.022 389.225 208.688 386.814 205.814 386.814 C 202.941 386.814 200.606 389.225 200.606 392.196 L 200.606 426.774 C 200.606 436.193 191.923 443.841 181.224 443.841 C 170.527 443.841 161.841 436.193 161.841 426.774 L 161.841 386.814 Q 161.711 385.984 161.841 360.086 Q 164.3 317.513 156.84 273.743 L 153.122 258.832 C 138.658 255.873 126.58 244.263 123.491 228.556 L 115.743 189.16 C 112.627 173.318 119.555 157.869 132.04 149.731 C 141.031 96.938 184.372 55.204 239.157 51.374 C 259.331 49.963 278.681 53.858 295.884 61.909 C 295.604 61.864 295.325 61.82 295.044 61.782 Z " fill="rgb(0,0,0)" vector-effect="non-scaling-stroke" stroke-width="20" stroke="rgb(0,0,0)" stroke-linejoin="miter" stroke-linecap="square" stroke-miterlimit="3"/><g id="deadbeat_icon"><path d=" M 369.278 155.23 C 369.278 92.974 188.785 61.549 257.622 61.549 C 326.458 61.549 382.344 112.093 382.344 174.349 C 382.344 236.605 326.458 287.149 257.622 287.149 C 188.785 287.149 369.278 217.486 369.278 155.23 Z " fill="rgb(88,86,214)"/><path d=" M 358.453 130.059 L 358.453 130.059 C 371.639 127.464 384.894 138.324 388.033 154.294 L 394.008 184.673 C 397.149 200.643 387.058 216.092 371.488 219.155 L 371.488 219.155 C 355.918 222.216 340.728 211.737 337.587 195.769 L 333.672 175.85 C 351.624 172.319 362.728 151.8 358.453 130.059 Z " fill="rgb(116,116,116)"/><path d=" M 346.152 96.265 C 320.053 63.639 272.544 47.849 224.675 59.783 C 161.707 75.483 121.811 133.246 135.635 188.694 L 156.84 273.743 Q 164.3 317.513 161.841 360.086 Q 161.711 385.984 161.841 386.814 L 161.841 426.774 C 161.841 436.193 170.527 443.841 181.224 443.841 C 191.923 443.841 200.606 436.193 200.606 426.774 L 200.606 426.774 L 200.606 392.196 C 200.606 389.225 202.941 386.814 205.814 386.814 C 208.688 386.814 211.022 389.225 211.022 392.196 L 211.022 393.429 L 211.022 395.442 L 211.154 395.442 C 212.288 403.915 220.48 410.498 230.404 410.498 C 240.329 410.498 248.521 403.915 249.653 395.442 L 249.787 395.442 L 249.787 393.429 L 249.787 392.196 C 249.787 389.225 252.083 386.814 254.913 386.814 C 257.742 386.814 260.038 389.225 260.038 392.196 L 260.038 422.009 C 260.038 431.431 268.724 439.078 279.421 439.078 C 290.118 439.078 298.803 431.431 298.803 422.009 L 298.803 422.009 L 298.803 392.196 C 298.803 389.225 301.216 386.814 304.185 386.814 L 304.629 386.814 C 307.6 386.814 310.01 389.225 310.01 392.196 L 310.01 443.841 L 310.01 443.841 L 310.01 444.238 L 310.016 444.238 C 310.255 453.477 318.847 460.91 329.393 460.91 C 339.941 460.91 348.531 453.477 348.771 444.238 L 348.775 444.238 L 348.775 443.841 L 348.775 392.196 C 348.775 389.225 350.896 386.814 353.505 386.814 C 356.115 386.814 358.235 389.225 358.235 392.196 L 358.235 410.498 C 358.235 419.92 366.919 427.567 377.618 427.567 C 388.314 427.567 397 419.92 397 410.498 L 397 410.498 L 397 386.814 L 397 360.086 L 384.573 204.939 C 382.196 184.006 380.713 155.316 359.719 113.169 C 355.402 106.505 350.867 100.924 346.152 96.265 Z  M 216.329 174.165 C 216.329 158.438 229.097 145.671 244.824 145.671 C 260.551 145.671 273.32 158.438 273.32 174.165 C 273.32 189.892 260.551 202.662 244.824 202.662 C 229.097 202.662 216.329 189.892 216.329 174.165 Z  M 319.57 153.135 C 319.57 144.358 326.697 137.23 335.474 137.23 C 344.254 137.23 351.379 144.358 351.379 153.135 C 351.379 161.914 344.254 169.042 335.474 169.042 C 326.697 169.042 319.57 161.914 319.57 153.135 Z " fill-rule="evenodd" fill="rgb(255,255,255)"/><path d=" M 144.946 144.449 L 144.946 144.449 C 165.135 140.478 184.833 154.066 188.904 174.773 L 196.652 214.167 C 200.725 234.875 187.638 254.909 167.449 258.88 L 167.449 258.88 C 147.26 262.851 127.564 249.263 123.491 228.556 L 115.743 189.16 C 111.67 168.453 124.757 148.418 144.946 144.449 Z " fill="rgb(116,116,116)"/><path d=" M 295.884 61.909 C 278.681 53.858 259.331 49.963 239.157 51.374 C 174.641 55.884 125.996 112.959 130.598 178.748 C 132.643 205.032 142.411 227.162 154.911 225.919 C 167.411 224.677 163.918 206.556 160.985 188.122 C 156.385 122.333 205.028 65.26 269.544 60.748 C 278.526 60.119 287.343 60.544 295.884 61.909 Z " fill="rgb(88,86,214)"/></g></g></svg>